<svg width="291" height="639" viewBox="0 0 291 639" fill="none" xmlns="http://www.w3.org/2000/svg">
    <path d="M1.61914 135.628C31.566 101.938 24.4362 43.7322 53.5735 9.45297C59.1164 2.93199 68.4177 107.098 68.4177 131.917" stroke="#3E9ADD" stroke-width="3" stroke-linecap="round"/>
    <path d="M9.04102 65.1184C22.4803 65.7904 95.1516 80.3043 99.9612 70.685" stroke="#3E9ADD" stroke-width="3" stroke-linecap="round"/>
    <path d="M124.083 16.8751C124.083 57.5645 138.927 96.2766 138.927 135.628" stroke="#3E9ADD" stroke-width="3" stroke-linecap="round"/>
    <path d="M124.083 2.03101C117.993 8.88198 119.835 3.0929 124.083 2.03101" stroke="#3E9ADD" stroke-width="3" stroke-linecap="round"/>
    <path d="M57.2842 256.236C70.5226 245.646 115.144 254.381 131.505 254.381" stroke="#FCFEFF" stroke-width="3" stroke-linecap="round"/>
    <path d="M94.3947 215.415C94.3947 246.026 86.9727 276.002 86.9727 306.335" stroke="#FCFEFF" stroke-width="3" stroke-linecap="round"/>
    <path d="M12.752 378.7V497.453" stroke="#3E9ADD" stroke-width="3" stroke-linecap="round"/>
    <path d="M12.752 362.001C1.7795 349.657 22.118 353.931 9.04102 358.29" stroke="#3E9ADD" stroke-width="3" stroke-linecap="round"/>
    <path d="M99.961 380.556C99.961 416.612 98.1055 453.582 98.1055 490.031" stroke="#3E9ADD" stroke-width="3" stroke-linecap="round"/>
    <path d="M64.7061 376.845C85.1744 376.845 109.511 378.7 131.505 378.7" stroke="#3E9ADD" stroke-width="3" stroke-linecap="round"/>
    <path d="M31.3076 540.13C33.9714 529.475 129.625 530.859 144.494 527.141" stroke="#FCFEFF" stroke-width="3" stroke-linecap="round"/>
    <path d="M44.2959 553.119C73.1703 547.485 144.258 562.632 164.904 541.986" stroke="#FCFEFF" stroke-width="3" stroke-linecap="round"/>
    <path d="M240.981 540.13C257.933 512.583 196.448 454.142 196.448 532.296C196.448 562.888 216.859 652.365 216.859 621.773" stroke="#3E9ADD" stroke-width="3" stroke-linecap="round"/>
    <path d="M242.836 543.841C242.836 508.194 303.413 520.344 286.338 564.252C276.125 590.513 225.49 636.617 196.448 636.617" stroke="#3E9ADD" stroke-width="3" stroke-linecap="round"/>
</svg>
